<?xml version="1.0" encoding="UTF-8"?>
<svg id="Layer_1" data-name="Layer 1" xmlns="http://www.w3.org/2000/svg" xmlns:xlink="http://www.w3.org/1999/xlink" viewBox="18.192732837665062 6.157786865250273 841.889831542999673 479.999999999999091">
  <defs>
    <style>
      .cls-1, .cls-2 {
        fill: #fff;
      }

      .cls-3 {
        fill: #fbae37;
      }

      .cls-4 {
        fill: #006d89;
      }

      .cls-2 {
        filter: url(#drop-shadow-1);
      }

      .cls-5 {
        fill: #f15647;
      }

      .cls-6 {
        clip-path: url(#clippath);
      }

      .cls-7 {
        fill: none;
      }

      .cls-8 {
        fill: #37bfc3;
      }
    </style>
    <filter id="drop-shadow-1" filterUnits="userSpaceOnUse">
      <feOffset dx="3" dy="3"/>
      <feGaussianBlur result="blur" stdDeviation="3"/>
      <feFlood flood-color="#010101" flood-opacity=".45"/>
      <feComposite in2="blur" operator="in"/>
      <feComposite in="SourceGraphic"/>
    </filter>
    <clipPath id="clippath">
      <rect class="cls-7" x="18.192732837665062" y="6.157786865250273" width="841.889831542999673" height="479.999999999999091"/>
    </clipPath>
  </defs>
  <rect class="cls-2" x="18.192732837665062" y="6.157786865250273" width="841.889831542999673" height="479.999999999999091"/>
  <g class="cls-6">
    <g>
      <g>
        <g>
          <g>
            <rect class="cls-3" x="79.576152538130373" y="330.172503734676866" width="79.571080827601691" height="81.660798497508949"/>
            <rect class="cls-8" x="159.147233365732063" y="330.172503734676866" width="79.57158799865374" height="81.660798497508949"/>
            <rect class="cls-4" x="170.591041002794555" y="341.916851804035105" width="56.684041299111414" height="58.172622849313484"/>
            <rect class="cls-5" x="181.249747850008134" y="352.855480550077118" width="35.366559030101598" height="36.295365357229457"/>
            <rect class="cls-3" x="190.133356012157492" y="361.972392479823611" width="17.599342705802883" height="18.061541497734652"/>
            <rect class="cls-5" x="238.718821364385803" y="330.172503734676866" width="79.5710808276026" height="81.660798497508949"/>
            <path class="cls-1" d="m241.113683076058805,330.172503734676866c42.623162454635349,0,77.176219115929598,35.460498564847512,77.176219115929598,79.203042267083219v2.45775623042573h-2.395368882726871c-42.623162454635349,0-77.175711944875729-35.459978074337414-77.175711944875729-79.203042267075944v-2.457756230433006h2.394861711673002Z"/>
            <g>
              <path class="cls-5" d="m130.791299799513581,343.467393059952883c-11.223188229061634,11.51741420309736-16.723965468540882,24.546853363724949-12.286218755887603,29.100624913933643,4.43774671265237,4.55429204072243,17.133252508209807-1.090427637183893,28.356440737271441-12.608362330805903,11.222681058008675-11.517934693614734,12.285711584834644-29.101145404447379,12.285711584834644-29.101145404447379,0,0-17.133252508209807,1.090948127697629-28.355933566218482,12.608882821319639Z"/>
              <path class="cls-5" d="m107.93265883514232,398.53893339743081c11.223122669321128-11.517934693623829,16.723392737746508-24.546853363724949,12.285646025094138-29.101145404447379-4.437239541599411-4.554292040724249-17.133252508209807,1.090948127688534-28.355933566218482,12.608882821312363-11.223188229063453,11.517934693623829-12.286218755887603,29.101145404443741-12.286218755887603,29.101145404443741,0,0,17.133252508209807-1.090948127693991,28.356506297011947-12.608882821308725Z"/>
            </g>
            <g>
              <path class="cls-5" d="m92.530315570653329,359.273649139120607c11.223253683227085,11.51793469362201,23.918694024619072,17.162654371519238,28.356440737272351,12.608882821321458,4.43774671265237-4.554292040724249-1.063030526825059-17.583210710832645-12.285711584834644-29.101145404447379-11.223188229062544-11.517934693623829-28.356440737270532-12.60888282131782-28.356440737270532-12.60888282131782,0,0,1.063030526823241,17.583210710819912,12.285711584832825,29.101145404443741Z"/>
              <path class="cls-5" d="m146.193070333208198,382.732677318263086c-11.223121986301521-11.517934693623829-23.918694024617253-17.163174862045707-28.356440737271441-12.608882821321458-4.43774671265146,4.554292040726068,1.063030526825969,17.583210710825369,12.286218755887603,29.101145404447379,11.222681058008675,11.51793469362201,28.355933566220301,12.608362330796808,28.355933566220301,12.608362330796808,0,0-1.06252335577301-17.583210710825369-12.285711584836463-29.100624913922729Z"/>
            </g>
            <path class="cls-4" d="m278.504431646928424,352.855480550077118c-9.76666283394934,0-17.683602969320418,8.124857000646443-17.683602969320418,18.147422433356041,0,10.023085923225153,7.916940135371078,18.147942923873416,17.683602969320418,18.147942923873416,9.76601592541283,0,17.682956060783908-8.124857000648262,17.682956060783908-18.147942923873416,0-10.022565432709598-7.916940135371078-18.147422433356041-17.682956060783908-18.147422433356041Z"/>
            <rect class="cls-8" x="318.289902191988404" y="330.172503734676866" width="79.571080827599872" height="81.660798497508949"/>
            <rect class="cls-1" y="330.168339810521502" width="79.575138196024454" height="81.664962421664313"/>
            <path class="cls-4" d="m79.575138196024454,330.168339810521502v17.181912520722108c0,11.281111507501919-4.456004870555262,21.483766659768662-11.649719084528442,28.876813990787923-7.204364806085323,7.382637520646313-17.156582376642291,11.956187710567974-28.13785001348333,11.956187710567974-21.973693036844452,0-39.787569098012682-18.282229477761575-39.787569098012682-40.833001701355897v-17.181912520722108h79.575138196024454Z"/>
            <path class="cls-3" d="m73.035674640260368,330.172503734676866v14.358251455467325c0,9.426603788526336-3.723649870205918,17.952758979283317-9.735148359928644,24.130981439097013-6.020120397621213,6.168853630475496-14.336647252598596,9.990815511051551-23.512957182319042,9.990815511051551-18.362127969325229,0-33.248105542246776-15.277437711923994-33.248105542246776-34.121796950148564v-14.358251455467325h66.496211084494462Z"/>
            <path class="cls-3" d="m358.075442605788339,330.172503734676866v21.029898927243266c0,10.935505802930493-8.638065711895251,19.800500321513027-19.29372980197877,19.800500321513027h-1.198009418365473c-10.655663820895825,0-19.293801193455693-8.864994518582535-19.293801193455693-19.800500321513027v-21.029898927243266h39.785540413799936Z"/>
            <path class="cls-4" d="m377.369243799244032,371.00290298343316h1.19743085583832c10.656170991946055,0,19.294308364505923,8.864994518584354,19.294308364505923,19.801020812030401v21.029378436722254h-39.785540413799936v-21.029378436722254c0-10.936026293446048,8.638137372559868-19.801020812030401,19.293801193455693-19.801020812030401Z"/>
            <path class="cls-5" d="m33.092404029015597,352.450018435820311c0-3.714220343159468-2.933984540879464-6.725257995225547-6.553157174192165-6.725257995225547-3.619679804366569,0-6.553664345246034,3.011037652066079-6.553664345246034,6.725257995225547,0,3.714740833675023,2.933984540879464,6.725778485741102,6.553664345246034,6.725778485741102,3.619172633312701,0,6.553157174192165-3.011037652066079,6.553157174192165-6.725778485741102Z"/>
            <path class="cls-5" d="m59.173232580008516,352.450018435820311c0-3.714220343159468-2.934048868850368-6.725257995225547-6.553728673215119-6.725257995225547-3.61917263331452,0-6.553157174193984,3.011037652066079-6.553157174193984,6.725257995225547,0,3.714740833675023,2.933984540879464,6.725778485741102,6.553157174193984,6.725778485741102,3.61967980436475,0,6.553728673215119-3.011037652066079,6.553728673215119-6.725778485741102Z"/>
          </g>
          <g>
            <rect class="cls-1" x="238.713749653858031" y="411.837986646860372" width="79.571080827599872" height="81.660798497521682" transform="translate(556.998580135315933 905.336771791242427) rotate(180)"/>
            <rect class="cls-5" x="159.142161655204291" y="411.837986646860372" width="79.57158799865374" height="81.660798497521682"/>
            <rect class="cls-4" x="79.571080827601691" y="411.837986646860372" width="79.5710808276026" height="81.660798497521682"/>
            <path class="cls-1" d="m81.965942539276512,411.837466156344817c42.623669625686489,0,77.176219115927779,35.46049856485115,77.176219115927779,79.203042267075944v2.458276720961294h-2.394861711674821c-42.623162454634439,0-77.176219115927779-35.460498564862064-77.176219115927779-79.203042267086857v-2.45827672095038h2.394861711674821Z"/>
            <path class="cls-1" d="m169.268846067949198,452.668385895620304c0-16.810802780724771,13.278819951035985-30.438285547605119,29.659363172106168-30.438285547605119,16.380103494692776,0,29.658856001055028,13.627482766880348,29.658856001055028,30.438285547605119,0,16.81028229020194-13.278752506362252,30.437765057080469-29.658856001055028,30.437765057080469-16.380543221070184,0-29.659363172106168-13.627482766878529-29.659363172106168-30.437765057080469Z"/>
            <path class="cls-3" d="m187.02389028698326,452.668385895620304c0-6.747118597017106,5.329860594660204-12.216953460558216,11.904318953072107-12.216953460558216,6.574458358413722,0,11.903811782020966,5.469834863541109,11.903811782020966,12.216953460558216,0,6.747118597018925-5.329353423607245,12.216432970033566-11.903811782020966,12.216432970033566-6.574458358411903,0-11.904318953072107-5.46931437301464-11.904318953072107-12.216432970033566Z"/>
            <g>
              <g>
                <path class="cls-3" d="m251.667912686379168,464.39763973992558c11.223188229064363-11.517934693614734,23.918694024619072-17.163174862034793,28.356440737272351-12.608882821314182,4.437746712653279,4.554292040726068-1.063030526825969,17.58321071082355-12.286218755887603,29.101145404451017-11.222681058006856,11.517934693618372-28.355933566218482,12.608882821319639-28.355933566218482,12.608882821319639,0,0,1.0625233557721-17.583210710834464,12.285711584833734-29.101145404456474Z"/>
                <path class="cls-3" d="m289.260445467551108,424.446348977659c11.222681058010494-11.517934693623829,28.355933566218482-12.608882821314182,28.355933566218482-12.608882821314182,0,0-1.063030526825059,17.58321071082355-12.286218755886694,29.10114540444556-11.222681058010494,11.517934693623829-23.918186853565203,17.163174862036612-28.355933566218482,12.608882821314182-4.437746712654189-4.554292040724249,1.063030526825059-17.583210710821731,12.286218755886694-29.10114540444556Z"/>
              </g>
              <g>
                <path class="cls-3" d="m267.069683220076513,425.13235548162811c11.223188229061634,11.517934693611096,16.723965468540882,24.546853363721311,12.286218755887603,29.10114540444556-4.437746712654189,4.554292040720611-17.133252508211626-1.090948127703086-28.355933566219392-12.608882821325096-11.223119338657852-11.517934693623829-12.286218755886694-29.10114540444556-12.286218755886694-29.10114540444556,0,0,17.133252508207988,1.090948127701267,28.355933566218482,12.608882821325096Z"/>
                <path class="cls-3" d="m277.642678159351817,451.102750414644106c4.437309500668562-4.553771550199599,17.133252508210717,1.090948127701267,28.356440737272351,12.608882821323277,11.222751904838333,11.517934693623829,12.285711584833734,29.101145404447379,12.285711584833734,29.101145404447379,0,0-17.133252508207988-1.090948127701267-28.356440737269622-12.608882821325096-11.223188229065272-11.517934693612915-16.723458297487014-24.546332873194842-12.285711584836463-29.10114540444556Z"/>
              </g>
            </g>
            <path class="cls-3" d="m101.673595311877762,452.668385895620304c0-10.023085923225153,7.916940135371078-18.147942923873416,17.683025929524774-18.147942923873416,9.766592965206655,0,17.683533100577733,8.124857000648262,17.683533100577733,18.147942923873416,0,10.022565432709598-7.916940135371078,18.147422433359679-17.683533100577733,18.147422433359679-9.766085794153696,0-17.683025929524774-8.124857000650081-17.683025929524774-18.147422433359679Z"/>
            <rect class="cls-8" y="411.837986646860372" width="79.571080827601691" height="81.660798497521682" transform="translate(79.571080827601747 905.336771791242427) rotate(180)"/>
            <rect class="cls-4" x="318.28584482356564" y="411.833302232185815" width="79.575138196022635" height="81.665482912196239"/>
            <path class="cls-1" d="m397.860983019588275,411.833302232185815v17.182433011252215c0,22.550251733062396-17.814383232218461,40.832481210829428-39.787569098012682,40.832481210829428-10.981267636841039,0-20.933485207398007-4.573029699404287-28.137850013481511-11.955667220052419-7.193207042919312-7.393047331015623-11.649719084528442-17.596222973797921-11.649719084528442-28.876813990777009v-17.182433011252215h79.575138196022635Z"/>
            <path class="cls-5" d="m391.321519463824188,411.837466156344817v14.358771945986518c0,18.843838747696282-14.885977572921547,34.121276459633009-33.248105542248595,34.121276459633009-9.176245859658593,0-17.49283678469601-3.821961880576055-23.512957182318132-9.990815511049732-6.011498489721816-6.178222459819153-9.735148359927734-14.703857160056941-9.735148359927734-24.130460948583277v-14.358771945986518h66.496211084494462Z"/>
            <path class="cls-5" d="m79.571080827601691,411.837466156344817v21.71590543120692c0,10.557109195657176-8.338906451363982,19.115014308068567-18.625349745766471,19.115014308068567h-2.534840922267904c-10.286443294402488,0-18.625349745765561-8.55790511241139-18.625349745765561-19.115014308068567v-21.71590543120692h39.785540413799936Z"/>
            <path class="cls-5" d="m18.625349745766471,452.668385895620304h2.534333751214945c10.286950465455448,0,18.625856916820339,8.557905112405933,18.625856916820339,19.114493817547554v21.715905431214196H0v-21.715905431214196c0-10.556588705141621,8.338906451364892-19.114493817547554,18.625349745766471-19.114493817547554Z"/>
            <path class="cls-8" d="m364.768578990574497,434.115501348007456c0-3.714740833675023,2.933984540879464-6.725778485739283,6.553229387700412-6.725778485739283,3.619607590858323,0,6.553592131737787,3.01103765206426,6.553592131737787,6.725778485739283,0,3.714220343159468-2.933984540879464,6.725257995221909-6.553592131737787,6.725257995221909-3.619244846820948,0-6.553229387700412-3.011037652062441-6.553229387700412-6.725257995221909Z"/>
            <path class="cls-8" d="m338.687814767552481,434.115501348007456c0-3.714740833675023,2.934056004104605-6.725778485739283,6.553664345242396-6.725778485739283,3.619172633312701,0,6.553157174195803,3.01103765206426,6.553157174195803,6.725778485739283,0,3.714220343159468-2.933984540883102,6.725257995221909-6.553157174195803,6.725257995221909-3.619608341137791,0-6.553664345242396-3.011037652062441-6.553664345242396-6.725257995221909Z"/>
          </g>
        </g>
        <g>
          <g>
            <rect class="cls-3" x="716.149870869473489" y="411.837466156344817" width="79.571080827601691" height="81.661318988037237" transform="translate(1511.870822566548668 905.336251300726758) rotate(180)"/>
            <rect class="cls-8" x="636.578790041873617" y="411.837466156344817" width="79.571080827599872" height="81.661318988037237" transform="translate(1352.728660911347106 905.336251300726872) rotate(180)"/>
            <rect class="cls-5" x="557.007709214270108" y="411.837466156344817" width="79.57108082760351" height="81.661318988037237"/>
            <path class="cls-3" d="m634.18350001309318,411.837466156344817h2.395290028780437v2.45827672095038c0,43.742543702224793-34.553056661296068,79.203042267086857-77.17621911592687,79.203042267086857h-2.395291978416935v-2.458276720961294c0-43.742543702224793,34.552979756981586-79.203042267075944,77.176221065563368-79.203042267075944Z"/>
            <path class="cls-1" d="m646.704967283566475,452.667865405097473c0,16.810802780724771,13.279259677416121,30.4382855476033,29.659363172106168,30.4382855476033,16.380103494691866,0,29.659363172106168-13.627482766878529,29.659363172106168-30.4382855476033,0-16.81028229020194-13.279259677414302-30.437765057082288-29.659363172106168-30.437765057082288-16.380103494690047,0-29.659363172106168,13.627482766880348-29.659363172106168,30.437765057082288Z"/>
            <path class="cls-3" d="m664.460518673654406,452.667865405097473c0,6.747118597018925,5.329353423603607,12.216953460556397,11.903811782018238,12.216953460556397s11.90389200226673-5.469834863537471,11.90389200226673-12.216953460556397c0-6.746598106494275-5.329433643852099-12.216432970035385-11.90389200226673-12.216432970035385s-11.903811782018238,5.469834863541109-11.903811782018238,12.216432970035385Z"/>
            <g>
              <g>
                <path class="cls-5" d="m729.104541073050314,440.938611560790378c11.222681058008675,11.517934693623829,23.918186853565203,17.163174862036612,28.355933566219392,12.608882821314182s-1.062523355771191-17.583210710821731-12.285711584832825-29.10114540444556c-11.223188229065272-11.517934693623829-28.356440737272351-12.608882821314182-28.356440737272351-12.608882821314182,0,0,1.06303052682415,17.58321071082355,12.286218755885784,29.10114540444556Z"/>
                <path class="cls-5" d="m782.766788664551314,464.39763973992558c-11.223188229061634-11.517934693614734-23.918694024618162-17.163174862034793-28.356440737268713-12.608882821314182-4.437746712654189,4.554292040726068,1.063112444817307,17.58321071082355,12.286218755887603,29.101145404451017,11.223188229061634,11.517934693618372,28.356523655129422,12.608882821319639,28.356523655129422,12.608882821319639,0,0-1.063113444686678-17.583210710834464-12.286301673748312-29.101145404456474Z"/>
              </g>
              <g>
                <path class="cls-5" d="m744.50631160674584,480.203895819089666c11.223188229061634-11.517934693612915,16.723540360892002-24.546853363719492,12.286218755887603-29.10114540444556-4.437746712654189-4.554292040726068-17.133252508208898,1.090948127701267-28.356359502306077,12.608882821323277-11.223269464027908,11.517934693623829-12.286299990853877,29.101145404447379-12.286299990853877,29.101145404447379,0,0,17.133252508210717-1.090948127701267,28.356440737272351-12.608882821325096Z"/>
                <path class="cls-5" d="m767.365018130857607,425.13235548162811c-11.223188229061634,11.517934693611096-16.723965468541792,24.546853363721311-12.286218755887603,29.10114540444556,4.437746712654189,4.553771550208694,17.133252508210717-1.090948127703086,28.356440737272351-12.608882821325096,11.223188229061634-11.517934693623829,12.285711584832825-29.10114540444556,12.285711584832825-29.10114540444556,0,0-17.133252508210717,1.090948127701267-28.355933566217573,12.608882821325096Z"/>
              </g>
            </g>
            <path class="cls-4" d="m579.109793990160142,452.667865405097473c0,10.023085923232429,7.916940335378968,18.147942923882511,17.68345563791263,18.147942923882511,9.766085794151877,0,17.683025929523865-8.124857000650081,17.683025929523865-18.147942923882511,0-10.022565432702322-7.916940135371988-18.147422433350584-17.683025929523865-18.147422433350584-9.766515302533662,0-17.68345563791263,8.124857000648262-17.68345563791263,18.147422433350584Z"/>
            <rect class="cls-1" x="477.436121215617277" y="411.837466156344817" width="79.571587998652831" height="81.661318988037237" transform="translate(1034.443830429887385 905.336251300726872) rotate(180)"/>
            <rect class="cls-1" x="795.721966039181098" y="411.837986646860372" width="79.575730312088126" height="81.66496242166977"/>
            <path class="cls-8" d="m807.372275523835015,447.443702066500919c7.203774405959848-7.382637520646313,17.156499147571594-11.955667220052419,28.137850724297095-11.955667220052419,21.973101925907031,0,39.787570103137114,18.282229477767032,39.787570103137114,40.832481210838523v17.18243301124312h-79.575730312088126v-17.18243301124312c0-11.280591016986364,4.456512041608221-21.483246169242193,11.650309484653917-28.876813990786104Z"/>
            <path class="cls-3" d="m811.996577954873828,455.009552249814078c6.020120397621213-6.168853630477315,14.336711322661358-9.990815511051551,23.513548293258282-9.990815511051551,18.36153685838508,0,33.248021602361405,15.277437711922175,33.248021602361405,34.121276459623914v14.358771945995613h-66.496718255544693v-14.358771945995613c0-9.426603788526336,3.72364987020228-17.952238488755029,9.735148359925006-24.130460948572363Z"/>
            <path class="cls-8" d="m536.515969993925864,452.667865405097473h1.19743085583832c10.655663820894915,0,19.293878097765628,8.864994518582535,19.293878097765628,19.801020812037677v21.029898927246904h-39.785110147058731v-21.029898927246904c0-10.936026293455143,8.638137372559868-19.801020812037677,19.293801193454783-19.801020812037677Z"/>
            <path class="cls-3" d="m517.222168800471081,411.837466156344817v21.029898927246904c0,10.935505802921398-8.638644543614646,19.800500321505751-19.294308364509561,19.800500321505751h-1.197430855834682c-10.656095879552595,0-19.294308364509561-8.864994518584354-19.294308364509561-19.800500321505751v-21.029898927246904h39.786047584853804Z"/>
            <path class="cls-4" d="m842.204784315198594,471.220749952710321c0,3.714740833675023,2.933900431873553,6.725778485741102,6.553580236237394,6.725778485741102,3.619172633316339,0,6.553157174192165-3.011037652066079,6.553157174192165-6.725778485741102,0-3.714220343150373-2.933984540875826-6.725257995223728-6.553157174192165-6.725257995223728-3.619679804363841,0-6.553580236237394,3.011037652073355-6.553580236237394,6.725257995223728Z"/>
            <path class="cls-4" d="m816.124443154220899,471.220749952710321c0,3.714740833675023,2.933984540879464,6.725778485741102,6.553157174192165,6.725778485741102,3.619679804367479,0,6.553748126510982-3.011037652066079,6.553748126510982-6.725778485741102,0-3.714220343150373-2.934068322143503-6.725257995223728-6.553748126510982-6.725257995223728-3.619172633312701,0-6.553157174192165,3.011037652073355-6.553157174192165,6.725257995223728Z"/>
          </g>
          <g>
            <rect class="cls-4" x="557.012350658186733" y="330.172503734676866" width="79.571511094214657" height="81.660798497508949"/>
            <rect class="cls-1" x="636.58386175240139" y="330.172503734676866" width="79.571080827601691" height="81.660798497508949"/>
            <rect class="cls-4" x="716.15494258000308" y="330.172503734676866" width="79.571080827599872" height="81.660798497508949"/>
            <path class="cls-1" d="m718.549804291677901,330.171983244150397c42.623162454634439,0,77.176219115925051,35.461019055373981,77.176219115925051,79.203562757609689v2.45775623042573h-2.394861711673002c-42.623162454634439,0-77.17621911592687-35.46049856485115-77.17621911592687-79.203042267075944v-2.458276720959475h2.394861711674821Z"/>
            <ellipse class="cls-4" cx="676.36940216620178" cy="371.00290298343316" rx="29.659363172105714" ry="30.4382855476033"/>
            <path class="cls-8" d="m706.028765338310222,371.00290298343316c0,11.826065080835178-9.341503189969444,21.412459458659214-20.865017115262162,21.412459458659214-11.522926321311388,0-20.864430329471361-9.586394377824035-20.864430329471361-21.412459458659214s9.341504008159973-21.412459458668309,20.864430329471361-21.412459458668309c11.523513925292718,0,20.865017115262162,9.58639437783313,20.865017115262162,21.412459458668309Z"/>
            <path class="cls-5" d="m706.023693627778812,371.00290298343316c0,6.747118597018925-5.32978006050871,12.216432970033566-11.904318953071197,12.216432970033566-6.574458358414631,0-11.903811782018238-5.46931437301464-11.903811782018238-12.216432970033566,0-6.747118597017106,5.329353423603607-12.216432970042661,11.903811782018238-12.216432970042661,6.574538892562487,0,11.904318953071197,5.469314373025554,11.904318953071197,12.216432970042661Z"/>
            <g>
              <path class="cls-3" d="m608.227421015130858,398.53893339743081c-11.223188229063453-11.517934693623829-16.723965468539973-24.546853363724949-12.286218755885784-29.101145404447379,4.437746712650551-4.554292040724249,17.133252508207079,1.090948127688534,28.356440737268713,12.608882821312363,11.223188229061634,11.517414203106455,12.286218755887603,29.100624913930005,12.286218755887603,29.100624913930005,0,0-17.133252508208898-1.090948127699448-28.356440737270532-12.608362330794989Z"/>
              <path class="cls-3" d="m585.36871449102091,343.466872569440966c11.223266133365541,11.517934693609277,16.723965468539973,24.546853363721311,12.286218755885784,29.10114540444556-4.43774671265237,4.55429204072243-17.133252508210717-1.090948127699448-28.356440737272351-12.608882821323277-11.223188229061634-11.51741420309736-12.28614185144761-29.100624913930005-12.28614185144761-29.100624913930005,0,0,17.133175603772543,1.090948127697629,28.356363832834177,12.608362330807722Z"/>
            </g>
            <ellipse class="cls-3" cx="755.940482993803471" cy="371.002902983430886" rx="17.683533100578188" ry="18.147942923875689"/>
            <rect class="cls-8" x="795.726023407602952" y="330.172503734676866" width="79.571672943666272" height="81.660798497508949"/>
            <rect class="cls-8" x="477.436121215617277" y="330.172503734676866" width="79.575138196025364" height="81.664962421667951"/>
            <path class="cls-1" d="m517.223690313629959,353.822551934263174c10.981343813544299,0,20.933992378451876,4.573550189927118,28.13785001348333,11.9556672200506,7.193714213970452,7.393567821540273,11.649719084529352,17.59622297379974,11.649719084529352,28.876813990778828v17.182433011252215h-79.575138196025364v-17.182433011252215c0-22.550251733062396,17.81438323222028-40.832481210829428,39.787569098012682-40.832481210829428Z"/>
            <path class="cls-5" d="m517.223690313629959,363.353774317090938c9.176753030711552,0,17.493420296961631,3.821441390051405,23.512957182319951,9.990815511051551,6.012005660773866,6.177701969301779,9.735655530979784,14.703857160046027,9.735655530979784,24.130460948570544v14.358251455472782h-66.49671825554833v-14.358251455472782c0-18.843838747696282,14.886484743978144-34.121276459622095,33.248105542248595-34.121276459622095Z"/>
            <path class="cls-5" d="m814.35188032442511,371.00290298343316h2.534333751213126c10.286443294404307,0,18.625349745769199,8.557905112405933,18.625349745769199,19.11501430806311v21.715384940689546h-39.785540413804483v-21.715384940689546c0-10.557109195657176,8.338906451366711-19.11501430806311,18.625856916822158-19.11501430806311Z"/>
            <path class="cls-5" d="m875.297696351269224,330.171983244150397v21.715905431214196c0,10.557109195658995-8.339498567427654,19.115014308068567-18.625941861830142,19.115014308068567h-2.534333751213126c-10.286950465457267,0-18.62585691681852-8.557905112409571-18.62585691681852-19.115014308068567v-21.715905431214196h39.786132529861788Z"/>
            <path class="cls-4" d="m510.529032415684014,389.555787531040551c0,3.714220343157649-2.933984540879464,6.725778485739283-6.553664345245124,6.725778485739283-3.619097160117235,0-6.553157174192165-3.011558142581634-6.553157174192165-6.725778485739283,0-3.714220343150373,2.93406001407493-6.725778485742921,6.553157174192165-6.725778485742921,3.61967980436566,0,6.553664345245124,3.011558142592548,6.553664345245124,6.725778485742921Z"/>
            <path class="cls-4" d="m536.609289467655799,389.555787531040551c0,3.714220343157649-2.933984540879464,6.725778485739283-6.553080950716321,6.725778485739283-3.619756027841504,0-6.553740568720968-3.011558142581634-6.553740568720968-6.725778485739283,0-3.714220343150373,2.933984540879464-6.725778485742921,6.553740568720968-6.725778485742921,3.619096409836857,0,6.553080950716321,3.011558142592548,6.553080950716321,6.725778485742921Z"/>
          </g>
        </g>
        <g>
          <rect class="cls-5" x="397.856998535008643" y="411.835904684781781" width="79.575140206265132" height="81.664962421671589"/>
          <rect class="cls-8" x="397.856998535008643" y="440.841279833746739" width="79.575140206265132" height="23.654212123739853" transform="translate(875.289137276282418 905.336771791233332) rotate(180)"/>
          <rect class="cls-8" x="396.812013538344218" y="441.1439380611464" width="81.664962421671589" height="23.04889566894235" transform="translate(890.312880644797588 15.023891146437563) rotate(90)"/>
          <rect class="cls-1" x="431.111117246046888" y="446.693154738186422" width="11.644647374007036" height="11.950462314862307" transform="translate(873.866881866100812 905.336771791235151) rotate(180)"/>
        </g>
        <g>
          <rect class="cls-3" x="397.860983019588275" y="330.172503734676866" width="79.575138196029002" height="81.664962421667951"/>
          <g>
            <path class="cls-5" d="m410.094455985978129,364.064764365963129h55.108192263252022c3.622215659630456,0,6.558736055774716,3.013640104660226,6.558736055774716,6.73150388144677v.417953886706528c0,3.717343286270989-2.93652039614426,6.730983390931215-6.558736055774716,6.730983390931215h-55.108192263252022c-3.622215659631365,0-6.558736055773807-3.013640104660226-6.558736055773807-6.730983390931215v-.417953886706528c0-3.717863776786544,2.936520396142441-6.73150388144677,6.558736055773807-6.73150388144677Z"/>
            <path class="cls-5" d="m413.383460263868074,386.092964108538581l38.966966334464814-39.99032755119697c2.561213817018142-2.628997611158411,6.714437569009533-2.628997611158411,9.275651386024037,0l.288073158033512.295118124244254c2.561213817016323,2.628997611167506,2.561213817016323,6.890773980243466,0,9.519251100891779l-38.967399987852332,39.990848041705249c-2.561213881719596,2.628477120651951-6.714003915620196,2.628477120651951-9.275724903689479,0l-.287565986980553-.295638614761629c-2.561720988069283-2.628477120639218-2.561720988069283-6.890773980243466,0-9.519251100882684Z"/>
            <path class="cls-5" d="m413.383460263868074,346.397754681585866l.287565986980553-.295118124244254c2.561720988069283-2.628997611158411,6.714511021969884-2.628997611158411,9.275724903689479,0l38.967399987852332,39.99032755119697c2.561213817016323,2.628477120639218,2.561213817016323,6.890773980243466,0,9.519251100882684l-.288073158033512.295638614761629c-2.561213817014504,2.628477120651951-6.714437569005895,2.628477120651951-9.275651386024037,0l-38.966966334464814-39.990848041705249c-2.561720988069283-2.628477120648313-2.561720988069283-6.890253489724273,0-9.519251100891779Z"/>
            <path class="cls-5" d="m437.445176525398892,335.996272151091034h.406751184404129c3.622722830687053,0,6.559243226833132,3.013640104660226,6.559243226833132,6.731503881454046v56.554938316445259c0,3.71734328626917-2.936520396146079,6.730983390929396-6.559243226833132,6.730983390929396h-.406751184404129c-3.622722830684324,0-6.559243226827675-3.013640104660226-6.559243226827675-6.730983390929396v-56.554938316445259c0-3.71786377679382,2.936520396143351-6.731503881454046,6.559243226827675-6.731503881454046Z"/>
          </g>
          <path class="cls-5" d="m428.477885139521277,371.000821021352749c0,5.195536360057304,4.104028159862537,9.407345639319828,9.166683498620841,9.407345639319828,5.062507560833183,0,9.166535720696629-4.211809279262525,9.166535720696629-9.407345639319828,0-5.195536360059123-4.104028159863446-9.40734563931619-9.166535720696629-9.40734563931619-5.062655338758304,0-9.166683498620841,4.211809279257068-9.166683498620841,9.40734563931619Z"/>
        </g>
      </g>
      <g>
        <g>
          <g>
            <rect class="cls-3" x="79.576152538130373" y="3.51161306695758" width="79.571080827601691" height="81.661318988036328"/>
            <rect class="cls-8" x="159.147233365732063" y="3.51161306695758" width="79.57158799865374" height="81.661318988036328"/>
            <rect class="cls-4" x="170.591041002794555" y="15.255961136317637" width="56.684041299111414" height="58.172622849314394"/>
            <rect class="cls-5" x="181.249747850008134" y="26.194589882358741" width="35.366559030101598" height="36.295365357232185"/>
            <rect class="cls-3" x="190.133356012157492" y="35.311501812107053" width="17.599342705802883" height="18.061541497735561"/>
            <rect class="cls-5" x="238.718821364385803" y="3.51161306695758" width="79.5710808276026" height="81.661318988036328"/>
            <path class="cls-1" d="m241.113683076058805,3.51161306695758c42.623162454635349,0,77.176219115929598,35.460498564861155,77.176219115929598,79.203042267085948v2.45827672095038h-2.395368882726871c-42.623162454635349,0-77.175711944875729-35.460498564850241-77.175711944875729-79.203562757601503v-2.457756230434825h2.394861711673002Z"/>
            <g>
              <path class="cls-5" d="m130.791299799513581,16.806502392237235c-11.223188229061634,11.517934693622919-16.723965468540882,24.54685336372313-12.286218755887603,29.10114540444647,4.43774671265237,4.554292040725159,17.133252508209807-1.090948127689444,28.356440737271441-12.608882821312363,11.222681058008675-11.517934693622919,12.285711584834644-29.101145404447379,12.285711584834644-29.101145404447379,0,0-17.133252508209807,1.090948127700358-28.355933566218482,12.608882821313273Z"/>
              <path class="cls-5" d="m107.93265883514232,71.878042729713343c11.223122669321128-11.517934693623829,16.723392737746508-24.546853363722221,12.285646025094138-29.101145404447379-4.437239541599411-4.553771550207784-17.133252508209807,1.090948127698539-28.355933566218482,12.608882821322368-11.223188229063453,11.517934693613824-12.286218755887603,29.10114540444647-12.286218755887603,29.10114540444647,0,0,17.133252508209807-1.090948127699448,28.356506297011947-12.608882821321458Z"/>
            </g>
            <g>
              <path class="cls-5" d="m92.530315570653329,32.61275847140314c11.223253683227085,11.517934693623829,23.918694024619072,17.163174862045707,28.356440737272351,12.608882821322368,4.43774671265237-4.554292040725159-1.063030526825059-17.583210710822641-12.285711584834644-29.10114540444556-11.223188229062544-11.517934693623829-28.356440737270532-12.608882821322368-28.356440737270532-12.608882821322368,0,0,1.063030526823241,17.583210710831736,12.285711584832825,29.10114540444556Z"/>
              <path class="cls-5" d="m146.193070333208198,56.071786650546528c-11.223121986301521-11.51793469362201-23.918694024617253-17.163174862044798-28.356440737271441-12.608882821322368-4.43774671265146,4.554292040724249,1.063030526825969,17.583210710832645,12.286218755887603,29.101145404455565,11.222681058008675,11.517934693613824,28.355933566220301,12.608882821314182,28.355933566220301,12.608882821314182,0,0-1.06252335577301-17.58321071082446-12.285711584836463-29.101145404447379Z"/>
            </g>
            <path class="cls-4" d="m278.504431646928424,26.194589882358741c-9.76666283394934,0-17.683602969320418,8.124857000650081-17.683602969320418,18.147942923873416,0,10.022565432708689,7.916940135371078,18.14742243335877,17.683602969320418,18.14742243335877,9.76601592541283,0,17.682956060783908-8.124857000650081,17.682956060783908-18.14742243335877,0-10.023085923223334-7.916940135371078-18.147942923873416-17.682956060783908-18.147942923873416Z"/>
            <rect class="cls-4" x="318.289902191988404" y="3.51161306695758" width="79.571080827599872" height="81.661318988036328"/>
            <rect class="cls-1" y="3.507449142806763" width="79.575138196024454" height="81.66496242167068"/>
            <path class="cls-4" d="m79.575138196024454,3.507449142806763v17.18243301124221c0,11.280591016990911-4.456004870555262,21.48324616924674-11.649719084528442,28.876813990788833-7.204364806085323,7.382117030120753-17.156582376642291,11.955667220042415-28.13785001348333,11.955667220042415C17.81387606116823,61.522363364880221,0,43.240133887123193,0,20.689882154048973V3.507449142806763h79.575138196024454Z"/>
            <path class="cls-3" d="m73.035674640260368,3.51161306695758v14.358251455480058c0,9.427124279040072-3.723649870205918,17.952758979270584-9.735148359928644,24.130981439086099-6.020120397621213,6.168853630476406-14.336647252598596,9.990815511050641-23.512957182319042,9.990815511050641-18.362127969325229,0-33.248105542246776-15.277437711921266-33.248105542246776-34.121796950136741V3.51161306695758h66.496211084494462Z"/>
            <path class="cls-3" d="m358.075442605788339,3.51161306695758v21.029898927245995c0,10.935505802930493-8.638065711895251,19.801020812028582-19.29372980197877,19.801020812028582h-1.198009418365473c-10.655663820895825,0-19.293801193455693-8.86551500909809-19.293801193455693-19.801020812028582V3.51161306695758h39.785540413799936Z"/>
            <path class="cls-1" d="m377.369243799244032,44.342532806232157h1.19743085583832c10.656170991946055,0,19.294308364505923,8.864474028069708,19.294308364505923,19.800500321513937v21.029898927247814h-39.785540413799936v-21.029898927247814c0-10.936026293444229,8.638137372559868-19.800500321513937,19.293801193455693-19.800500321513937Z"/>
            <path class="cls-5" d="m33.092404029015597,25.789127768103754c0-3.714220343151283-2.933984540879464-6.725257995216452-6.553157174192165-6.725257995216452-3.619679804366569,0-6.553664345246034,3.01103765206517-6.553664345246034,6.725257995216452,0,3.714740833673204,2.933984540879464,6.725778485738374,6.553664345246034,6.725778485738374,3.619172633312701,0,6.553157174192165-3.01103765206517,6.553157174192165-6.725778485738374Z"/>
            <path class="cls-5" d="m59.173232580008516,25.789127768103754c0-3.714220343151283-2.934048868850368-6.725257995216452-6.553728673215119-6.725257995216452-3.61917263331452,0-6.553157174193984,3.01103765206517-6.553157174193984,6.725257995216452,0,3.714740833673204,2.933984540879464,6.725778485738374,6.553157174193984,6.725778485738374,3.61967980436475,0,6.553728673215119-3.01103765206517,6.553728673215119-6.725778485738374Z"/>
          </g>
          <g>
            <rect class="cls-1" x="238.713749653858031" y="85.177095979143814" width="79.571080827599872" height="81.660798497519863" transform="translate(556.998580135315933 252.014990455807464) rotate(180)"/>
            <rect class="cls-5" x="159.142161655204291" y="85.177095979143814" width="79.57158799865374" height="81.660798497519863"/>
            <rect class="cls-4" x="79.571080827601691" y="85.177095979143814" width="79.5710808276026" height="81.660798497519863"/>
            <path class="cls-1" d="m81.965942539276512,85.177095979143814c42.623669625686489,0,77.176219115927779,35.460498564859336,77.176219115927779,79.203042267085038v2.457756230434825h-2.394861711674821c-42.623162454634439,0-77.176219115927779-35.460498564860245-77.176219115927779-79.203042267085038v-2.457756230434825h2.394861711674821Z"/>
            <path class="cls-1" d="m169.268846067949198,126.007495227904656c0-16.81028229020194,13.278819951035985-30.438285547606938,29.659363172106168-30.438285547606938,16.380103494692776,0,29.658856001055028,13.628003257404998,29.658856001055028,30.438285547606938,0,16.81028229020103-13.278752506362252,30.43828554760421-29.658856001055028,30.43828554760421-16.380543221070184,0-29.659363172106168-13.628003257403179-29.659363172106168-30.43828554760421Z"/>
            <path class="cls-3" d="m187.02389028698326,126.007495227904656c0-6.747118597018016,5.329860594660204-12.216953460558216,11.904318953072107-12.216953460558216,6.574458358413722,0,11.903811782020966,5.4698348635402,11.903811782020966,12.216953460558216,0,6.747118597018925-5.329353423607245,12.216432970041751-11.903811782020966,12.216432970041751-6.574458358411903,0-11.904318953072107-5.469314373022826-11.904318953072107-12.216432970041751Z"/>
            <g>
              <g>
                <path class="cls-3" d="m251.667912686379168,137.736749072217208c11.223188229064363-11.517934693622919,23.918694024619072-17.163174862044798,28.356440737272351-12.608362330806813,4.437746712653279,4.553771550211422-1.063030526825969,17.583210710832645-12.286218755887603,29.100624913932734-11.222681058006856,11.517934693623829-28.355933566218482,12.608882821320549-28.355933566218482,12.608882821320549,0,0,1.0625233557721-17.583210710833555,12.285711584833734-29.10114540444647Z"/>
                <path class="cls-3" d="m289.260445467551108,97.785458309950627c11.222681058010494-11.517414203109183,28.355933566218482-12.608362330806813,28.355933566218482-12.608362330806813,0,0-1.063030526825059,17.582690220306176-12.286218755886694,29.100624913929096-11.222681058010494,11.517934693623829-23.918186853565203,17.163174862049345-28.355933566218482,12.608882821324187-4.437746712654189-4.554292040724249,1.063030526825059-17.583210710833555,12.286218755886694-29.10114540444647Z"/>
              </g>
              <g>
                <path class="cls-3" d="m267.069683220076513,98.471464813907915c11.223188229061634,11.517934693623829,16.723965468540882,24.546853363722221,12.286218755887603,29.101145404447379-4.437746712654189,4.554292040725159-17.133252508211626-1.090948127697629-28.355933566219392-12.608882821311454-11.223119338657852-11.517414203110093-12.286218755886694-29.100624913930915-12.286218755886694-29.100624913930915,0,0,17.133252508207988,1.090427637172979,28.355933566218482,12.608362330794989Z"/>
                <path class="cls-3" d="m277.642678159351817,124.442380237452198c4.437309500668562-4.554292040721521,17.133252508210717,1.090948127700358,28.356440737272351,12.608362330797718,11.222751904838333,11.517934693622919,12.285711584833734,29.101145404447379,12.285711584833734,29.101145404447379,0,0-17.133252508207988-1.090948127688534-28.356440737269622-12.608882821311454-11.223188229065272-11.517934693622919-16.723458297487014-24.546332873208485-12.285711584836463-29.100624913933643Z"/>
              </g>
            </g>
            <path class="cls-3" d="m101.673595311877762,126.007495227904656c0-10.022565432708689,7.916940135371078-18.147942923873416,17.683025929524774-18.147942923873416,9.766592965206655,0,17.683533100577733,8.125377491164727,17.683533100577733,18.147942923873416,0,10.022565432709598-7.916940135371078,18.147942923873416-17.683533100577733,18.147942923873416-9.766085794153696,0-17.683025929524774-8.125377491163817-17.683025929524774-18.147942923873416Z"/>
            <rect class="cls-8" y="85.177095979143814" width="79.571080827601691" height="81.660798497519863" transform="translate(79.571080827601705 252.014990455807492) rotate(180)"/>
            <rect class="cls-4" x="318.28584482356564" y="85.172932054993908" width="79.575138196022635" height="81.66496242166977"/>
            <path class="cls-1" d="m397.860983019588275,85.172932054993908v17.181912520727565c0,22.550251733071491-17.814383232218461,40.832481210832157-39.787569098012682,40.832481210832157-10.981267636841039,0-20.933485207398007-4.573029699408835-28.137850013481511-11.955667220052419-7.193207042919312-7.393047331020171-11.649719084528442-17.59622297379974-11.649719084528442-28.876813990779738v-17.181912520727565h79.575138196022635Z"/>
            <path class="cls-5" d="m391.321519463824188,85.177095979143814v14.358251455481877c0,18.843838747698101-14.885977572921547,34.121276459619367-33.248105542248595,34.121276459619367-9.176245859658593,0-17.49283678469601-3.821441390057771-23.512957182318132-9.990815511048822-6.011498489721816-6.178222459814606-9.735148359927734-14.703857160055122-9.735148359927734-24.130460948570544v-14.358251455481877h66.496211084494462Z"/>
            <path class="cls-5" d="m79.571080827601691,85.177095979143814v21.715384940688637c0,10.557109195658086-8.338906451363982,19.115014308072205-18.625349745766471,19.115014308072205h-2.534840922267904c-10.286443294402488,0-18.625349745765561-8.557905112414119-18.625349745765561-19.115014308072205v-21.715384940688637h39.785540413799936Z"/>
            <path class="cls-5" d="m18.625349745766471,126.007495227904656h2.534333751214945c10.286950465455448,0,18.625856916820339,8.5579051124123,18.625856916820339,19.114493817544826v21.715905431214196H0v-21.715905431214196c0-10.556588705132526,8.338906451364892-19.114493817544826,18.625349745766471-19.114493817544826Z"/>
            <path class="cls-8" d="m364.768578990574497,107.454610680289079c0-3.714220343151283,2.933984540879464-6.725778485739283,6.553229387700412-6.725778485739283,3.619607590858323,0,6.553592131737787,3.011558142588001,6.553592131737787,6.725778485739283,0,3.714220343160378-2.933984540879464,6.725778485740193-6.553592131737787,6.725778485740193-3.619244846820948,0-6.553229387700412-3.011558142579815-6.553229387700412-6.725778485740193Z"/>
            <path class="cls-8" d="m338.687814767552481,107.454610680289079c0-3.714220343151283,2.934056004104605-6.725778485739283,6.553664345242396-6.725778485739283,3.619172633312701,0,6.553157174195803,3.011558142588001,6.553157174195803,6.725778485739283,0,3.714220343160378-2.933984540883102,6.725778485740193-6.553157174195803,6.725778485740193-3.619608341137791,0-6.553664345242396-3.011558142579815-6.553664345242396-6.725778485740193Z"/>
          </g>
        </g>
        <g>
          <g>
            <rect class="cls-3" x="716.149870869473489" y="85.177095979143814" width="79.571080827601691" height="81.660798497519863" transform="translate(1511.870822566548668 252.014990455807379) rotate(180)"/>
            <rect class="cls-8" x="636.578790041873617" y="85.177095979143814" width="79.571080827599872" height="81.660798497519863" transform="translate(1352.728660911347106 252.014990455807407) rotate(180)"/>
            <rect class="cls-5" x="557.007709214270108" y="85.177095979143814" width="79.57108082760351" height="81.660798497519863"/>
            <path class="cls-3" d="m634.18350001309318,85.177095979143814h2.395290028780437v2.457756230434825c0,43.742543702224793-34.553056661296068,79.203042267085038-77.17621911592687,79.203042267085038h-2.395291978416935v-2.457756230434825c0-43.743064192751262,34.552979756981586-79.203042267085038,77.176221065563368-79.203042267085038Z"/>
            <path class="cls-1" d="m646.704967283566475,126.007495227904656c0,16.81028229020103,13.279259677416121,30.437765057088654,29.659363172106168,30.437765057088654,16.380103494691866,0,29.659363172106168-13.627482766887624,29.659363172106168-30.437765057088654,0-16.810802780715676-13.279259677414302-30.438285547606938-29.659363172106168-30.438285547606938-16.380103494690047,0-29.659363172106168,13.627482766891262-29.659363172106168,30.438285547606938Z"/>
            <path class="cls-3" d="m664.460518673654406,126.007495227904656c0,6.747118597018925,5.329353423603607,12.216432970041751,11.903811782018238,12.216432970041751s11.90389200226673-5.469314373022826,11.90389200226673-12.216432970041751c0-6.747118597018016-5.329433643852099-12.216953460558216-11.90389200226673-12.216953460558216s-11.903811782018238,5.4698348635402-11.903811782018238,12.216953460558216Z"/>
            <g>
              <g>
                <path class="cls-5" d="m729.104541073050314,114.27772089307291c11.222681058008675,11.517934693623829,23.918186853565203,17.163174862049345,28.355933566219392,12.608882821324187s-1.062523355771191-17.583210710833555-12.285711584832825-29.10114540444647c-11.223188229065272-11.517934693622919-28.356440737272351-12.608362330806813-28.356440737272351-12.608362330806813,0,0,1.06303052682415,17.582690220306176,12.286218755885784,29.100624913929096Z"/>
                <path class="cls-5" d="m782.766788664551314,137.736749072217208c-11.223188229061634-11.517934693622919-23.918694024618162-17.162654371529243-28.356440737268713-12.608882821320549-4.437746712654189,4.554292040725159,1.063112444817307,17.58321071082355,12.286218755887603,29.10114540444647,11.223188229061634,11.517934693623829,28.356523655129422,12.608882821320549,28.356523655129422,12.608882821320549,0,0-1.063113444686678-17.583210710833555-12.286301673748312-29.10114540444647Z"/>
              </g>
              <g>
                <path class="cls-5" d="m744.50631160674584,153.543005151385842c11.223188229061634-11.517414203111002,16.723540360892002-24.546853363724949,12.286218755887603-29.100624913933643-4.437746712654189-4.554292040721521-17.133252508208898,1.090427637183893-28.356359502306077,12.608362330797718-11.223269464027908,11.517934693622919-12.286299990853877,29.101145404447379-12.286299990853877,29.101145404447379,0,0,17.133252508210717-1.090948127688534,28.356440737272351-12.608882821311454Z"/>
                <path class="cls-5" d="m767.365018130857607,98.471464813907915c-11.223188229061634,11.517934693623829-16.723965468541792,24.546853363722221-12.286218755887603,29.101145404447379s17.133252508210717-1.090948127697629,28.356440737272351-12.608882821311454c11.223188229061634-11.517934693622919,12.285711584832825-29.101145404458293,12.285711584832825-29.101145404458293,0,0-17.133252508210717,1.090948127700358-28.355933566217573,12.608882821322368Z"/>
              </g>
            </g>
            <path class="cls-4" d="m579.109793990160142,126.007495227904656c0,10.022565432709598,7.916940335378968,18.14742243335786,17.68345563791263,18.14742243335786,9.766085794151877,0,17.683025929523865-8.124857000648262,17.683025929523865-18.14742243335786,0-10.023085923225153-7.916940135371988-18.147942923873416-17.683025929523865-18.147942923873416-9.766515302533662,0-17.68345563791263,8.124857000648262-17.68345563791263,18.147942923873416Z"/>
            <rect class="cls-3" x="477.436121215617277" y="85.177095979143814" width="79.571587998652831" height="81.660798497519863" transform="translate(1034.443830429887385 252.014990455807435) rotate(180)"/>
            <rect class="cls-1" x="795.721966039181098" y="85.177095979143814" width="79.575730312088126" height="81.664962421672499"/>
            <path class="cls-8" d="m807.372275523835015,120.782811398783451c7.203774405959848-7.382637520637218,17.156499147571594-11.955667220042415,28.137850724297095-11.955667220042415,21.973101925907031,0,39.787570103137114,18.282229477757028,39.787570103137114,40.832481210833066v17.18243301124221h-79.575730312088126v-17.18243301124221c0-11.280591016980907,4.456512041608221-21.483246169248559,11.650309484653917-28.876813990790652Z"/>
            <path class="cls-3" d="m811.996577954873828,128.34866158209752c6.020120397621213-6.168853630474587,14.336711322661358-9.990815511051551,23.513548293258282-9.990815511051551,18.36153685838508,0,33.248021602361405,15.277437711923994,33.248021602361405,34.121276459622095v14.358771945995613h-66.496718255544693v-14.358771945995613c0-9.426603788515422,3.72364987020228-17.952238488754119,9.735148359925006-24.130460948570544Z"/>
            <path class="cls-5" d="m536.515969993925864,126.0069747373891h1.19743085583832c10.655663820894915,0,19.293878097765628,8.865515009099909,19.293878097765628,19.801020812030401v21.029898927244176h-39.785110147058731v-21.029898927244176c0-10.935505802930493,8.638137372559868-19.801020812030401,19.293801193454783-19.801020812030401Z"/>
            <path class="cls-4" d="m517.222168800471081,85.177095979143814v21.029378436731349c0,10.935505802929583-8.638644543614646,19.800500321513937-19.294308364509561,19.800500321513937h-1.197430855834682c-10.656095879552595,0-19.294308364509561-8.864994518584354-19.294308364509561-19.800500321513937v-21.029378436731349h39.786047584853804Z"/>
            <path class="cls-4" d="m842.204784315198594,144.560379775518413c0,3.714220343149464,2.933900431873553,6.725257995225547,6.553580236237394,6.725257995225547,3.619172633316339,0,6.553157174192165-3.011037652076084,6.553157174192165-6.725257995225547,0-3.714740833673204-2.933984540875826-6.725778485740193-6.553157174192165-6.725778485740193-3.619679804363841,0-6.553580236237394,3.011037652066989-6.553580236237394,6.725778485740193Z"/>
            <path class="cls-4" d="m816.124443154220899,144.560379775518413c0,3.714220343149464,2.933984540879464,6.725257995225547,6.553157174192165,6.725257995225547,3.619679804367479,0,6.553748126510982-3.011037652076084,6.553748126510982-6.725257995225547,0-3.714740833673204-2.934068322143503-6.725778485740193-6.553748126510982-6.725778485740193-3.619172633312701,0-6.553157174192165,3.011037652066989-6.553157174192165,6.725778485740193Z"/>
          </g>
          <g>
            <rect class="cls-4" x="557.012350658186733" y="3.51161306695758" width="79.571511094214657" height="81.660798497519863"/>
            <rect class="cls-3" x="636.58386175240139" y="3.51161306695758" width="79.571080827601691" height="81.660798497519863"/>
            <rect class="cls-4" x="716.15494258000308" y="3.51161306695758" width="79.571080827599872" height="81.660798497519863"/>
            <path class="cls-1" d="m718.549804291677901,3.51161306695758c42.623162454634439,0,77.176219115925051,35.460498564861155,77.176219115925051,79.203042267085948v2.457756230433915h-2.394861711673002c-42.623162454634439,0-77.17621911592687-35.460498564860245-77.17621911592687-79.203042267085038v-2.457756230434825h2.394861711674821Z"/>
            <path class="cls-4" d="m706.028765338310222,44.342012315717511c0,16.810802780716585-13.279259677416121,30.438285547606029-29.659363172109806,30.438285547606029-16.380610665741187,0-29.659363172104349-13.627482766889443-29.659363172104349-30.438285547606029,0-16.81028229020194,13.278752506363162-30.437765057089564,29.659363172104349-30.437765057089564,16.380103494693685,0,29.659363172109806,13.627482766887624,29.659363172109806,30.437765057089564Z"/>
            <path class="cls-8" d="m706.028765338310222,44.342012315717511c0,11.826065080835178-9.341503189969444,21.412459458669218-20.865017115262162,21.412459458669218-11.522926321311388,0-20.864430329471361-9.58639437783404-20.864430329471361-21.412459458669218,0-11.825544590319623,9.341504008159973-21.412459458670128,20.864430329471361-21.412459458670128,11.523513925292718,0,20.865017115262162,9.586914868350505,20.865017115262162,21.412459458670128Z"/>
            <path class="cls-5" d="m706.023693627778812,44.342012315717511c0,6.747118597017106-5.32978006050871,12.216953460558216-11.904318953071197,12.216953460558216-6.574458358414631,0-11.903811782018238-5.469834863541109-11.903811782018238-12.216953460558216,0-6.747118597018016,5.329353423603607-12.21643297004357,11.903811782018238-12.21643297004357,6.574538892562487,0,11.904318953071197,5.469314373025554,11.904318953071197,12.21643297004357Z"/>
            <g>
              <path class="cls-1" d="m608.227421015130858,71.878042729713343c-11.223188229063453-11.517934693623829-16.723965468539973-24.546853363722221-12.286218755885784-29.101145404447379,4.437746712650551-4.55429204072334,17.133252508207079,1.090948127698539,28.356440737268713,12.608882821322368,11.223188229061634,11.517414203099179,12.286218755887603,29.10062491392182,12.286218755887603,29.10062491392182,0,0-17.133252508208898-1.090427637174798-28.356440737270532-12.608362330796808Z"/>
              <path class="cls-1" d="m585.36871449102091,16.806502392237235c11.223266133365541,11.517414203108274,16.723965468539973,24.546332873207575,12.286218755885784,29.100624913930915-4.43774671265237,4.55429204072334-17.133252508210717-1.090948127698539-28.356440737272351-12.608362330796808-11.223188229061634-11.517934693622919-12.28614185144761-29.101145404447379-12.28614185144761-29.101145404447379,0,0,17.133175603772543,1.090948127700358,28.356363832834177,12.608882821313273Z"/>
            </g>
            <ellipse class="cls-3" cx="755.940482993803471" cy="44.342012315717056" rx="17.683533100578188" ry="18.14794292387387"/>
            <rect class="cls-8" x="795.726023407602952" y="3.51161306695758" width="79.571672943666272" height="81.660798497519863"/>
            <rect class="cls-8" x="477.436121215617277" y="3.51161306695758" width="79.575138196025364" height="81.665482912186235"/>
            <path class="cls-1" d="m517.223690313629959,27.161661266553892c10.981343813544299,0,20.933992378451876,4.573550189920752,28.13785001348333,11.956187710567974,7.193714213970452,7.393047331015623,11.649719084529352,17.59622297379974,11.649719084529352,28.876813990777919v17.182433011244029h-79.575138196025364v-17.182433011244029c0-22.550772223587956,17.81438323222028-40.833001701345893,39.787569098012682-40.833001701345893Z"/>
            <path class="cls-5" d="m517.223690313629959,36.69288364937438c9.176753030711552,0,17.493420296961631,3.8214413900605,23.512957182319951,9.990815511051551,6.012005660773866,6.17770196929996,9.735655530979784,14.703857160056032,9.735655530979784,24.130460948570544v14.358251455480968h-66.49671825554833v-14.358251455480968c0-18.843838747698101,14.886484743978144-34.121276459622095,33.248105542248595-34.121276459622095Z"/>
            <path class="cls-5" d="m814.35188032442511,44.342012315717511h2.534333751213126c10.286443294404307,0,18.625349745769199,8.557905112413209,18.625349745769199,19.115014308071295v21.715384940688637h-39.785540413804483v-21.715384940688637c0-10.557109195658086,8.338906451366711-19.115014308071295,18.625856916822158-19.115014308071295Z"/>
            <path class="cls-5" d="m875.297696351269224,3.51161306695758v21.715384940689546c0,10.557109195657176-8.339498567427654,19.115014308070386-18.625941861830142,19.115014308070386h-2.534333751213126c-10.286950465457267,0-18.62585691681852-8.557905112413209-18.62585691681852-19.115014308070386V3.51161306695758h39.786132529861788Z"/>
            <path class="cls-4" d="m510.529032415684014,62.894896863332178c0,3.714740833674114-2.933984540879464,6.725778485739283-6.553664345245124,6.725778485739283-3.619097160117235,0-6.553157174192165-3.01103765206517-6.553157174192165-6.725778485739283,0-3.714220343159468,2.93406001407493-6.725257995224638,6.553157174192165-6.725257995224638,3.61967980436566,0,6.553664345245124,3.01103765206517,6.553664345245124,6.725257995224638Z"/>
            <path class="cls-4" d="m536.609289467655799,62.894896863332178c0,3.714740833674114-2.933984540879464,6.725778485739283-6.553080950716321,6.725778485739283-3.619756027841504,0-6.553740568720968-3.01103765206517-6.553740568720968-6.725778485739283,0-3.714220343159468,2.933984540879464-6.725257995224638,6.553740568720968-6.725257995224638,3.619096409836857,0,6.553080950716321,3.01103765206517,6.553080950716321,6.725257995224638Z"/>
          </g>
        </g>
        <g>
          <rect class="cls-5" x="397.856998535008643" y="85.175014017073408" width="79.575140206265132" height="81.664962421662494"/>
          <rect class="cls-8" x="397.856998535008643" y="114.180389166029272" width="79.575140206265132" height="23.654212123748948" transform="translate(875.289137276282418 252.014990455807435) rotate(180)"/>
          <rect class="cls-8" x="396.812013538348765" y="114.48304739343348" width="81.664962421662494" height="23.04889566894235" transform="translate(563.651989977084668 -311.636999521275357) rotate(90)"/>
          <rect class="cls-1" x="431.111117246046888" y="120.03226407047714" width="11.644647374007036" height="11.950462314862307" transform="translate(873.866881866100812 252.01499045581653) rotate(180)"/>
        </g>
        <g>
          <rect class="cls-3" x="397.860983019588275" y="3.51161306695758" width="79.575138196029002" height="81.665482912186235"/>
          <g>
            <path class="cls-1" d="m410.094455985978129,37.404394188770311h55.108192263252022c3.622215659630456,0,6.558736055774716,3.013119614136485,6.558736055774716,6.730983390931215v.417953886706528c0,3.717343286270079-2.93652039614426,6.730983390931215-6.558736055774716,6.730983390931215h-55.108192263252022c-3.622215659631365,0-6.558736055773807-3.013640104661135-6.558736055773807-6.730983390931215v-.417953886706528c0-3.717863776794729,2.936520396142441-6.730983390931215,6.558736055773807-6.730983390931215Z"/>
            <path class="cls-1" d="m413.383460263868074,59.432073440822023l38.966966334464814-39.990327551187875c2.561213817018142-2.628477120650132,6.714437569009533-2.628477120650132,9.275651386024037,0l.288073158033512.295118124235159c2.561213817016323,2.628997611166596,2.561213817016323,6.890773980252561,0,9.519771591409153l-38.967399987852332,39.99032755119697c-2.561213881719596,2.628477120641946-6.714003915620196,2.628477120641946-9.275724903689479,0l-.287565986980553-.29563861475981c-2.561720988069283-2.628477120651041-2.561720988069283-6.890773980241647,0-9.519251100893598Z"/>
            <path class="cls-1" d="m413.383460263868074,19.736864013869308l.287565986980553-.295118124235159c2.561720988069283-2.628477120650132,6.714511021969884-2.628477120650132,9.275724903689479,0l38.967399987852332,39.990327551187875c2.561213817016323,2.628477120651951,2.561213817016323,6.890773980242557,0,9.519251100893598l-.288073158033512.29563861475981c-2.561213817014504,2.628477120641946-6.714437569005895,2.628477120641946-9.275651386024037,0l-38.966966334464814-39.99032755119697c-2.561720988069283-2.628997611156592-2.561720988069283-6.890773980242557,0-9.519771591409153Z"/>
            <path class="cls-1" d="m437.445176525398892,9.335381483371748h.406751184404129c3.622722830687053,0,6.559243226833132,3.01364010467023,6.559243226833132,6.731503881456774v56.554938316452535c0,3.717863776787453-2.936520396146079,6.730983390932124-6.559243226833132,6.730983390932124h-.406751184404129c-3.622722830684324,0-6.559243226827675-3.013119614144671-6.559243226827675-6.730983390932124V16.066885364828522c0-3.717863776786544,2.936520396143351-6.731503881456774,6.559243226827675-6.731503881456774Z"/>
          </g>
          <path class="cls-5" d="m428.477885139521277,44.33993035363801c0,5.195536360058213,4.104028159862537,9.407345639326195,9.166683498620841,9.407345639326195,5.062507560833183,0,9.166535720696629-4.211809279267982,9.166535720696629-9.407345639326195s-4.104028159863446-9.406825148794269-9.166535720696629-9.406825148794269c-5.062655338758304,0-9.166683498620841,4.211288788736056-9.166683498620841,9.406825148794269Z"/>
        </g>
      </g>
      <g>
        <g>
          <g>
            <rect class="cls-3" x="79.576152538130373" y="166.842058400816313" width="79.571587998655559" height="81.661318988037237"/>
            <rect class="cls-8" x="159.147740536785932" y="166.842058400816313" width="79.571080827599872" height="81.661318988037237"/>
            <rect class="cls-4" x="170.591041002794555" y="178.586406470176371" width="56.684041299111414" height="58.172622849313484"/>
            <rect class="cls-5" x="181.249747850008134" y="189.525035216217475" width="35.366559030101598" height="36.295365357234004"/>
            <rect class="cls-3" x="190.133356012157492" y="198.641947145964878" width="17.599342705802883" height="18.061541497734652"/>
            <rect class="cls-5" x="238.718821364385803" y="166.842058400816313" width="79.5710808276026" height="81.661318988037237"/>
            <path class="cls-4" d="m241.113683076058805,166.842058400816313c42.623162454635349,0,77.176219115929598,35.460498564860245,77.176219115929598,79.203042267085038v2.457756230434825h-2.395368882726871c-42.623162454635349,0-77.175711944875729-35.459978074333776-77.175711944875729-79.203042267085038v-2.457756230434825h2.394861711673002Z"/>
            <g>
              <path class="cls-5" d="m130.791299799513581,180.136947726094149c-11.223188229061634,11.517934693624738-16.723965468540882,24.54685336372404-12.286218755887603,29.10114540444647,4.43774671265237,4.553771550209603,17.133252508209807-1.09094812769672,28.356440737271441-12.608882821310544,11.223188229063453-11.517934693623829,12.286218755888513-29.101145404455565,12.286218755888513-29.101145404455565,0,0-17.133186087488866,1.09094812769672-28.356440737272351,12.608882821319639Z"/>
              <path class="cls-5" d="m107.93265883514232,235.208488063572076c11.223122669321128-11.517934693623829,16.723899908800377-24.546853363722221,12.286153196147097-29.101145404447379-4.43774671265237-4.554292040724249-17.133252508209807,1.090948127697629-28.356440737271441,12.608882821310544-11.223188229063453,11.517934693623829-12.286218755887603,29.101145404456474-12.286218755887603,29.101145404456474,0,0,17.133252508209807-1.09094812769672,28.356506297011947-12.608882821319639Z"/>
            </g>
            <g>
              <path class="cls-5" d="m92.530822741707198,195.943203805263693c11.222746512173217,11.51793469362201,23.918694024617253,17.163174862043888,28.355933566218482,12.608882821319639,4.43774671265237-4.55429204072243-1.06252335577301-17.583210710832645-12.285711584834644-29.101145404447379-11.223188229062544-11.517934693622919-28.356440737270532-12.608882821319639-28.356440737270532-12.608882821319639,0,0,1.063030526823241,17.583210710822641,12.286218755886694,29.101145404447379Z"/>
              <path class="cls-5" d="m146.193070333208198,219.402231984407081c-11.223121986301521-11.517934693623829-23.918694024617253-17.163174862049345-28.356440737271441-12.608882821324187-4.43774671265146,4.554292040726068,1.063030526825969,17.583210710832645,12.286218755887603,29.101145404447379,11.223188229062544,11.51793469362201,28.356440737271441,12.608882821323277,28.356440737271441,12.608882821323277,0,0-1.06303052682415-17.583210710826279-12.286218755887603-29.10114540444647Z"/>
            </g>
            <path class="cls-3" d="m278.504431646928424,189.525035216217475c-9.766155662894562,0-17.683602969320418,8.124857000647353-17.683602969320418,18.147422433356951,0,10.023085923226972,7.917447306425856,18.147942923877054,17.683602969320418,18.147942923877054,9.76601592541283,0,17.683463231837777-8.124857000650081,17.683463231837777-18.147942923877054,0-10.022565432709598-7.917447306424947-18.147422433356951-17.683463231837777-18.147422433356951Z"/>
            <rect class="cls-8" x="318.289902191988404" y="166.842058400816313" width="79.571080827599872" height="81.661318988037237"/>
            <rect class="cls-1" y="166.837894476663678" width="79.575138196024454" height="81.664962421672499"/>
            <path class="cls-4" d="m79.575138196024454,166.837894476663678v17.18243301124312c0,11.280591016979997-4.456004870555262,21.48324616924674-11.649719084528442,28.876293500264183-7.204364806085323,7.382637520646313-17.156582376642291,11.956187710568884-28.13785001348333,11.956187710568884-21.973693036844452,0-39.787569098012682-18.282229477757937-39.787569098012682-40.832481210833066v-17.18243301124312h79.575138196024454Z"/>
            <path class="cls-3" d="m73.035674640260368,166.842058400816313v14.358251455470054c0,9.426603788524517-3.723649870205918,17.952758979281498-9.735148359928644,24.130981439096104-6.019613226569163,6.168853630474587-14.336647252598596,9.990815511051551-23.512957182319042,9.990815511051551-18.36162079827136,0-33.248105542246776-15.277437711923994-33.248105542246776-34.121796950147655v-14.358251455470054h66.496211084494462Z"/>
            <path class="cls-3" d="m358.075442605788339,166.842058400816313v21.029898927245085c0,10.935505802929583-8.638065711895251,19.801020812030401-19.29372980197877,19.801020812030401h-1.197502247314333c-10.655663820895825,0-19.294308364506833-8.865515009100818-19.294308364506833-19.801020812030401v-21.029898927245085h39.785540413799936Z"/>
            <path class="cls-1" d="m377.369750970295172,207.6729781400918h1.19743085583741c10.655663820895825,0,19.294308364509561,8.86447402806607,19.294308364509561,19.800500321513937v21.02937843673044h-39.786047584853804v-21.02937843673044c0-10.936026293447867,8.638137372559868-19.800500321513937,19.294308364506833-19.800500321513937Z"/>
            <path class="cls-5" d="m33.092911200067647,189.119573101961578c0-3.714220343150373-2.934491711931514-6.725257995225547-6.553664345244215-6.725257995225547-3.61917263331452,0-6.553664345246034,3.011037652075174-6.553664345246034,6.725257995225547,0,3.714740833674114,2.934491711931514,6.725778485740193,6.553664345246034,6.725778485740193,3.619172633312701,0,6.553664345244215-3.011037652066079,6.553664345244215-6.725778485740193Z"/>
            <path class="cls-5" d="m59.173232580008516,189.119573101961578c0-3.714220343150373-2.934048868850368-6.725257995225547-6.553728673215119-6.725257995225547-3.61917263331452,0-6.553157174193984,3.011037652075174-6.553157174193984,6.725257995225547,0,3.714740833674114,2.933984540879464,6.725778485740193,6.553157174193984,6.725778485740193,3.61967980436475,0,6.553728673215119-3.011037652066079,6.553728673215119-6.725778485740193Z"/>
          </g>
          <g>
            <rect class="cls-4" x="238.713749653858031" y="248.507541313001639" width="79.571080827599872" height="81.660798497519863" transform="translate(556.998580135315933 578.675881123523141) rotate(180)"/>
            <rect class="cls-5" x="159.142668826255431" y="248.507541313001639" width="79.5710808276026" height="81.660798497519863"/>
            <rect class="cls-4" x="79.571080827601691" y="248.507541313001639" width="79.57158799865374" height="81.660798497519863"/>
            <path class="cls-1" d="m81.965942539276512,248.507020822486083c42.623669625686489,0,77.176726286978919,35.46049856485115,77.176726286978919,79.203042267077763v2.458276720957656h-2.395368882725961c-42.623162454634439,0-77.176219115927779-35.460498564860245-77.176219115927779-79.203042267085038v-2.45827672095038h2.394861711674821Z"/>
            <path class="cls-1" d="m169.268846067949198,289.337940561765208c0-16.81080278072659,13.278819951035985-30.438285547606938,29.659363172106168-30.438285547606938,16.380103494692776,0,29.658856001055028,13.627482766880348,29.658856001055028,30.438285547606938,0,16.810282290198302-13.278752506362252,30.438285547601481-29.658856001055028,30.438285547601481-16.380543221070184,0-29.659363172106168-13.628003257403179-29.659363172106168-30.438285547601481Z"/>
            <path class="cls-3" d="m187.02389028698326,289.337940561765208c0-6.747118597018925,5.329860594660204-12.216953460561854,11.904318953072107-12.216953460561854,6.574458358413722,0,11.903811782020966,5.469834863542928,11.903811782020966,12.216953460561854,0,6.747118597013468-5.329353423607245,12.216432970031747-11.903811782020966,12.216432970031747-6.574458358411903,0-11.904318953072107-5.469314373018278-11.904318953072107-12.216432970031747Z"/>
            <g>
              <g>
                <path class="cls-3" d="m251.667912686379168,301.067194406075942c11.223188229064363-11.517934693623829,23.918694024619072-17.163174862043888,28.356440737272351-12.608362330805903,4.437746712653279,4.553771550206875-1.062523355771191,17.582690220309814-12.285711584832825,29.100624913933643s-28.35644073727326,12.60888282131782-28.35644073727326,12.60888282131782c0,0,1.063030526825969-17.583210710832645,12.285711584833734-29.10114540444556Z"/>
                <path class="cls-3" d="m289.260445467551108,261.115903643800266c11.223188229061634-11.517414203100998,28.35644073727326-12.608882821314182,28.35644073727326-12.608882821314182,0,0-1.063537697879838,17.58321071082355-12.286218755887603,29.10114540444556-11.223188229064363,11.517934693623829-23.918694024619072,17.163174862045707-28.356440737272351,12.608882821325096-4.437746712654189-4.554292040726068,1.063030526825059-17.583210710834464,12.286218755886694-29.101145404456474Z"/>
              </g>
              <g>
                <path class="cls-3" d="m267.070190391127653,261.801910147767558c11.222681058010494,11.51793469362201,16.723458297489742,24.546853363721311,12.286288646158937,29.101145404447379-4.438323773976663,4.554292040726068-17.133322398480232-1.090948127703086-28.356510627541866-12.608882821321458-11.223119338657852-11.517934693614734-12.286218755886694-29.100624913924548-12.286218755886694-29.100624913924548,0,0,17.133252508207988,1.090427637176617,28.356440737269622,12.608362330798627Z"/>
                <path class="cls-3" d="m277.642678159351817,287.772305080785372c4.437746712653279-4.553771550199599,17.133252508210717,1.091468618225917,28.356440737272351,12.608882821323277,11.223188229061634,11.517934693623829,12.285711584833734,29.101145404447379,12.285711584833734,29.101145404447379,0,0-17.133252508207988-1.090948127701267-28.356440737269622-12.608882821316001-11.222681058010494-11.51793469362201-16.723458297487014-24.546332873203937-12.285711584836463-29.101145404454655Z"/>
              </g>
            </g>
            <path class="cls-3" d="m101.673595311877762,289.337940561765208c0-10.022565432711417,7.916940135371078-18.147942923877054,17.683025929524774-18.147942923877054,9.766592965206655,0,17.683533100577733,8.125377491165636,17.683533100577733,18.147942923877054,0,10.022565432704141-7.916940135371078,18.147942923873416-17.683533100577733,18.147942923873416-9.766085794153696,0-17.683025929524774-8.125377491169274-17.683025929524774-18.147942923873416Z"/>
            <rect class="cls-8" y="248.507541313001639" width="79.571080827601691" height="81.660798497519863" transform="translate(79.571080827601719 578.675881123523141) rotate(180)"/>
            <rect class="cls-4" x="318.28584482356564" y="248.503377388853551" width="79.575138196022635" height="81.664962421667951"/>
            <path class="cls-1" d="m397.861490190642144,248.502856898336177v17.182433011244939c0,22.550251733060577-17.814890403272329,40.832481210829428-39.788076269066551,40.832481210829428-10.981267636841039,0-20.933485207398007-4.573029699407925-28.137342842427643-11.9556672200506-7.19371421397318-7.393047331019261-11.650226255582311-17.59622297379974-11.650226255582311-28.876813990778828v-17.182433011244939h79.575645367076504Z"/>
            <path class="cls-5" d="m391.322026634875328,248.507020822486083v14.358771945995613c0,18.84383874769992-14.886484743972687,34.121276459622095-33.248612713299735,34.121276459622095-9.176245859658593,0-17.49283678469601-3.821441390058681-23.512957182318132-9.990815511047913-6.011498489721816-6.178222459819153-9.735148359927734-14.703857160056941-9.735148359927734-24.130460948574182v-14.358771945995613h66.496718255545602Z"/>
            <path class="cls-5" d="m79.571080827601691,248.507020822486083v21.715905431205101c0,10.557109195658995-8.338906451363982,19.115014308074024-18.625349745766471,19.115014308074024h-2.534333751214945c-10.286950465455448,0-18.62585691681852-8.557905112415028-18.62585691681852-19.115014308074024v-21.715905431205101h39.785540413799936Z"/>
            <path class="cls-5" d="m18.625856916820339,289.337940561765208h2.534333751214035c10.286443294402488,0,18.62534974576738,8.557905112409571,18.62534974576738,19.114493817543917v21.715905431212377H0v-21.715905431212377c0-10.556588705134345,8.338906451364892-19.114493817543917,18.625856916820339-19.114493817543917Z"/>
            <path class="cls-8" d="m364.768578990574497,270.785056014148722c0-3.714740833675023,2.933984540879464-6.725778485741102,6.553229387700412-6.725778485741102,3.619607590858323,0,6.553592131737787,3.011037652066079,6.553592131737787,6.725778485741102,0,3.714220343159468-2.933984540879464,6.725257995225547-6.553592131737787,6.725257995225547-3.619244846820948,0-6.553229387700412-3.011037652066079-6.553229387700412-6.725257995225547Z"/>
            <path class="cls-8" d="m338.687814767552481,270.785056014148722c0-3.714740833675023,2.934491711930605-6.725778485741102,6.553664345242396-6.725778485741102,3.619172633312701,0,6.553664345246943,3.011037652066079,6.553664345246943,6.725778485741102,0,3.714220343159468-2.934491711934243,6.725257995225547-6.553664345246943,6.725257995225547-3.619172633311791,0-6.553664345242396-3.011037652066079-6.553664345242396-6.725257995225547Z"/>
          </g>
        </g>
        <g>
          <g>
            <rect class="cls-3" x="716.149870869473489" y="248.507020822486083" width="79.571587998656469" height="81.661318988035418" transform="translate(1511.871329737603446 578.675360633007472) rotate(180)"/>
            <rect class="cls-8" x="636.578790041873617" y="248.507020822486083" width="79.571080827599872" height="81.661318988035418" transform="translate(1352.728660911347106 578.675360633007585) rotate(180)"/>
            <rect class="cls-5" x="557.007709214270108" y="248.507020822486083" width="79.57108082760351" height="81.661318988035418"/>
            <path class="cls-3" d="m634.183928330200615,248.507020822486083h2.394861711673002v2.45827672095038c0,43.742543702224793-34.553056661296068,79.203042267085038-77.17621911592687,79.203042267085038h-2.39486171167664v-2.458276720957656c0-43.742543702226612,34.553134438510824-79.203042267077763,77.176219115930508-79.203042267077763Z"/>
            <path class="cls-1" d="m646.705553624905406,289.337940561765208c0,16.810282290198302,13.27867333607719,30.437765057087745,29.658776830767238,30.437765057087745,16.380610665744825,0,29.659363172106168-13.627482766889443,29.659363172106168-30.437765057087745,0-16.81080278072659-13.278752506361343-30.438285547606938-29.659363172106168-30.438285547606938-16.380103494690047,0-29.658776830767238,13.627482766880348-29.658776830767238,30.438285547606938Z"/>
            <path class="cls-3" d="m664.460518673654406,289.337940561765208c0,6.746598106499732,5.329353423603607,12.216432970031747,11.903811782018238,12.216432970031747s11.904318953073016-5.469834863532014,11.904318953073016-12.216432970031747c0-6.747118597018925-5.329860594658385-12.216953460561854-11.904318953073016-12.216953460561854s-11.903811782018238,5.469834863542928-11.903811782018238,12.216953460561854Z"/>
            <g>
              <g>
                <path class="cls-5" d="m729.104541073050314,277.608166226931644c11.223188229061634,11.517934693623829,23.918694024619981,17.163174862045707,28.356440737272351,12.608882821325096,4.43723954160123-4.554292040726068-1.06303052682415-17.583210710834464-12.286218755885784-29.101145404456474-11.223188229065272-11.517934693614734-28.356440737272351-12.608882821314182-28.356440737272351-12.608882821314182,0,0,1.06303052682415,17.58321071082355,12.286218755885784,29.10114540444556Z"/>
                <path class="cls-5" d="m782.766788664551314,301.067194406075942c-11.223188229061634-11.517934693623829-23.918694024618162-17.163174862043888-28.356440737268713-12.608882821319639-4.437746712654189,4.554292040720611,1.063112444817307,17.58321071082355,12.286218755887603,29.101145404447379,11.223188229061634,11.517934693623829,28.356523655129422,12.60888282131782,28.356523655129422,12.60888282131782,0,0-1.063113444686678-17.583210710832645-12.286301673748312-29.10114540444556Z"/>
              </g>
              <g>
                <path class="cls-5" d="m744.50631160674584,316.873450485240028c11.223188229061634-11.51793469362201,16.723965468539973-24.546853363730406,12.286218755887603-29.101145404454655-4.437746712654189-4.553771550199599-17.133252508208898,1.090948127701267-28.356359502306077,12.608882821323277-11.223269464027908,11.517934693623829-12.286299990853877,29.101145404447379-12.286299990853877,29.101145404447379,0,0,17.133252508210717-1.090948127701267,28.356440737272351-12.608882821316001Z"/>
                <path class="cls-5" d="m767.365018130857607,261.801910147767558c-11.223188229061634,11.51793469362201-16.723965468541792,24.546853363721311-12.286218755887603,29.101145404447379s17.133252508210717-1.090948127703086,28.356440737272351-12.608882821321458c11.223188229061634-11.517934693614734,12.286218755887603-29.101145404449198,12.286218755887603-29.101145404449198,0,0-17.133252508210717,1.090948127701267-28.356440737272351,12.608882821323277Z"/>
              </g>
            </g>
            <path class="cls-4" d="m579.109793990160142,289.337940561765208c0,10.022565432704141,7.917369843758934,18.147422433356041,17.68345563791263,18.147422433356041,9.766085794151877,0,17.683533100578643-8.1248570006519,17.683533100578643-18.147422433356041,0-10.023085923226972-7.917447306426766-18.147942923877054-17.683533100578643-18.147942923877054-9.766085794153696,0-17.68345563791263,8.124857000650081-17.68345563791263,18.147942923877054Z"/>
            <rect class="cls-1" x="477.436121215617277" y="248.507020822486083" width="79.571587998652831" height="81.661318988035418" transform="translate(1034.443830429887385 578.675360633007585) rotate(180)"/>
            <rect class="cls-1" x="795.722556144996815" y="248.507541313001639" width="79.575140206272408" height="81.664962421675227"/>
            <path class="cls-8" d="m807.372275523835015,284.113256732642185c7.204281577010988-7.382637520644494,17.156499147571594-11.955667220052419,28.137850724297095-11.955667220052419,21.973101925907031,0,39.787570103137114,18.282229477767032,39.787570103137114,40.832481210840342v17.182433011246758h-79.575140206272408v-17.182433011246758c0-11.280591016988183,4.455921935792503-21.483246169244012,11.649719378838199-28.876813990787923Z"/>
            <path class="cls-3" d="m811.996577954873828,291.679106915957163c6.020120397621213-6.168853630475496,14.336711322661358-9.99081551105337,23.513548293258282-9.99081551105337,18.36153685838508,0,33.248021602361405,15.277437711925813,33.248021602361405,34.121276459623914v14.358771945993794h-66.496211084493552v-14.358771945993794c0-9.426603788526336,3.723649870205918-17.952238488756848,9.734641188873866-24.130460948570544Z"/>
            <path class="cls-8" d="m536.515969993925864,289.337420071247834h1.19743085583832c10.655663820894915,0,19.294308364505923,8.865515009099909,19.294308364505923,19.801020812026763v21.029898927246904h-39.785540413799026v-21.029898927246904c0-10.935505802926855,8.638137372559868-19.801020812026763,19.293801193454783-19.801020812026763Z"/>
            <path class="cls-3" d="m517.222168800471081,248.507020822486083v21.029898927246904c0,10.935505802921398-8.638644543614646,19.800500321514846-19.294308364509561,19.800500321514846h-1.197430855834682c-10.655663820894915,0-19.294308364509561-8.864994518593448-19.294308364509561-19.800500321514846v-21.029898927246904h39.786047584853804Z"/>
            <path class="cls-4" d="m842.204784315198594,307.890825109378056c0,3.714220343148554,2.933900431873553,6.725257995214633,6.553580236237394,6.725257995214633,3.619172633316339,0,6.553157174192165-3.011037652066079,6.553157174192165-6.725257995214633,0-3.714740833676842-2.933984540875826-6.725778485741102-6.553157174192165-6.725778485741102-3.619679804363841,0-6.553580236237394,3.01103765206426-6.553580236237394,6.725778485741102Z"/>
            <path class="cls-4" d="m816.124443154220899,307.890825109378056c0,3.714220343148554,2.933984540879464,6.725257995214633,6.553157174192165,6.725257995214633,3.619679804367479,0,6.553748126510982-3.011037652066079,6.553748126510982-6.725257995214633,0-3.714740833676842-2.934068322143503-6.725778485741102-6.553748126510982-6.725778485741102-3.619172633312701,0-6.553157174192165,3.01103765206426-6.553157174192165,6.725778485741102Z"/>
          </g>
          <g>
            <rect class="cls-4" x="557.012780924801518" y="166.842058400816313" width="79.571080827599872" height="81.660798497519863"/>
            <rect class="cls-3" x="636.58386175240139" y="166.842058400816313" width="79.571080827601691" height="81.660798497519863"/>
            <rect class="cls-4" x="716.15494258000308" y="166.842058400816313" width="79.571080827599872" height="81.660798497519863"/>
            <path class="cls-1" d="m718.550311462730861,166.842058400816313c42.62316245463262,0,77.17621911592687,35.460498564860245,77.17621911592687,79.203042267085038v2.457756230434825h-2.39536888272778c-42.623162454634439,0-77.17621911592687-35.460498564860245-77.17621911592687-79.203042267085038v-2.457756230434825h2.39536888272778Z"/>
            <ellipse class="cls-4" cx="676.36940216620178" cy="207.672457649575335" rx="29.659363172105714" ry="30.438285547606029"/>
            <path class="cls-8" d="m706.028765338310222,207.672457649574426c0,11.826065080834269-9.341503189969444,21.412459458670128-20.865017115262162,21.412459458670128-11.522926321311388,0-20.864430329471361-9.586394377835859-20.864430329471361-21.412459458670128,0-11.825544590317804,9.341504008159973-21.412459458669218,20.864430329471361-21.412459458669218,11.523513925292718,0,20.865017115262162,9.586914868351414,20.865017115262162,21.412459458669218Z"/>
            <path class="cls-5" d="m706.023693627778812,207.672457649574426c0,6.747118597018925-5.32978006050871,12.216953460557306-11.904318953071197,12.216953460557306-6.574458358414631,0-11.903811782018238-5.469834863538381-11.903811782018238-12.216953460557306,0-6.747118597017106,5.329353423603607-12.216432970041751,11.903811782018238-12.216432970041751,6.574538892562487,0,11.904318953071197,5.469314373024645,11.904318953071197,12.216432970041751Z"/>
            <g>
              <path class="cls-1" d="m608.227421015130858,235.208488063572076c-11.223188229063453-11.517934693623829-16.723458297488833-24.546853363722221-12.285711584834644-29.101145404447379,4.437239541599411-4.554292040724249,17.133330828910402,1.090948127697629,28.355933566217573,12.608882821310544,11.223188229061634,11.517414203111002,12.286218755887603,29.100624913933643,12.286218755887603,29.100624913933643,0,0-17.133252508208898-1.090427637173889-28.356440737270532-12.608362330796808Z"/>
              <path class="cls-1" d="m585.36871449102091,180.136427235580413c11.223266133365541,11.517934693623829,16.723965468539973,24.546853363722221,12.286218755885784,29.101145404447379-4.43774671265237,4.55429204072243-17.133252508210717-1.090948127699448-28.356440737272351-12.608362330797718-11.223188229061634-11.517934693623829-12.285711584832825-29.101145404455565-12.285711584832825-29.101145404455565,0,0,17.133252508208898,1.09094812769672,28.355933566219392,12.608362330805903Z"/>
            </g>
            <path class="cls-3" d="m773.62401609438075,207.672457649574426c0,10.022565432709598-7.916940135370169,18.147942923877054-17.683533100576824,18.147942923877054-9.766085794151877,0-17.683025929527503-8.125377491167455-17.683025929527503-18.147942923877054s7.916940135375626-18.147942923873416,17.683025929527503-18.147942923873416c9.766592965206655,0,17.683533100576824,8.125377491163817,17.683533100576824,18.147942923873416Z"/>
            <rect class="cls-8" x="795.726023407602952" y="166.842058400816313" width="79.571672943666272" height="81.660798497519863"/>
            <rect class="cls-8" x="477.436121215617277" y="166.842058400816313" width="79.575645367076504" height="81.66496242166977"/>
            <path class="cls-1" d="m517.223690313629959,190.492106600404441c10.981774807894908,0,20.933992378451876,4.573550189928028,28.13785001348333,11.956187710565246,7.193714213970452,7.393047331026537,11.650226255580492,17.596222973808835,11.650226255580492,28.876293500273277v17.18243301124312h-79.575645367076504v-17.18243301124312c0-22.550251733071491,17.81438323222028-40.832481210838523,39.787569098012682-40.832481210838523Z"/>
            <path class="cls-5" d="m517.223690313629959,200.023328983231295c9.176753030711552,0,17.493420296961631,3.821441390061409,23.513540846670367,9.99081551105246,6.011421996423451,6.177701969302689,9.735071866629369,14.703857160056032,9.735071866629369,24.130460948570544v14.358251455481877h-66.49671825554833v-14.358251455481877c0-18.843838747698101,14.886484743978144-34.121276459623004,33.248105542248595-34.121276459623004Z"/>
            <path class="cls-5" d="m814.35188032442511,207.672457649574426h2.534333751213126c10.286950465457267,0,18.625856916820339,8.557905112405933,18.625856916820339,19.115014308072205v21.715384940689546h-39.785540413800845v-21.715384940689546c0-10.557109195666271,8.338989596890315-19.115014308072205,18.62534974576738-19.115014308072205Z"/>
            <path class="cls-5" d="m875.297696351269224,166.842058400816313v21.715384940688637c0,10.557109195658086-8.339498567427654,19.115014308069476-18.625941861830142,19.115014308069476h-2.534333751213126c-10.286443294402488,0-18.62534974576738-8.55790511241139-18.62534974576738-19.115014308069476v-21.715384940688637h39.785625358810648Z"/>
            <path class="cls-4" d="m510.529032415684014,226.225342197190912c0,3.714740833676842-2.933984540879464,6.725778485739283-6.553664345245124,6.725778485739283-3.619097160117235,0-6.553157174192165-3.011037652062441-6.553157174192165-6.725778485739283,0-3.714220343160378,2.93406001407493-6.725257995227366,6.553157174192165-6.725257995227366,3.61967980436566,0,6.553664345245124,3.011037652066989,6.553664345245124,6.725257995227366Z"/>
            <path class="cls-4" d="m536.609289467655799,226.225342197190912c0,3.714740833676842-2.933984540879464,6.725778485739283-6.553080950716321,6.725778485739283-3.619756027841504,0-6.553740568720968-3.011037652062441-6.553740568720968-6.725778485739283,0-3.714220343160378,2.933984540879464-6.725257995227366,6.553740568720968-6.725257995227366,3.619096409836857,0,6.553080950716321,3.011037652066989,6.553080950716321,6.725257995227366Z"/>
          </g>
        </g>
        <g>
          <rect class="cls-5" x="397.856998535008643" y="248.505459350930323" width="79.575140206265132" height="81.664962421664313"/>
          <rect class="cls-8" x="397.856998535008643" y="277.510834499888006" width="79.575140206265132" height="23.654212123748948" transform="translate(875.289137276282418 578.67588112352496) rotate(180)"/>
          <rect class="cls-8" x="396.812267123874335" y="277.813239141764825" width="81.664962421664313" height="23.049402839995309" transform="translate(726.982688896468972 -148.306807772944012) rotate(90)"/>
          <rect class="cls-1" x="431.111624417100757" y="283.362709404327688" width="11.644140202953167" height="11.950462314860488" transform="translate(873.86738903715468 578.675881123515865) rotate(180)"/>
        </g>
        <g>
          <rect class="cls-3" x="397.860983019588275" y="166.842058400816313" width="79.575138196029002" height="81.66496242166977"/>
          <g>
            <path class="cls-1" d="m410.095036350029659,200.734319032103485h55.107611899200492c3.622215659630456,0,6.55931797766425,3.013640104661135,6.55931797766425,6.731503881447679v.417953886715623c0,3.717343286260075-2.937102318033794,6.730983390931215-6.55931797766425,6.730983390931215h-55.107611899200492c-3.622288852631755,0-6.559316419825336-3.01364010467114-6.559316419825336-6.730983390931215v-.417953886715623c0-3.717863776786544,2.937027567193581-6.731503881447679,6.559316419825336-6.731503881447679Z"/>
            <path class="cls-1" d="m413.383460263868074,222.762518774679847l38.966966334464814-39.990327551187875c2.561720988071102-2.628997611167506,6.714437569009533-2.628997611167506,9.275651386024037,0l.288073158033512.29511812423425c2.561720988069283,2.628997611168415,2.561720988069283,6.890773980242557,0,9.519771591409153l-38.967399987852332,39.990327551188784c-2.561213881719596,2.628477120650132-6.714003915620196,2.628477120650132-9.275724903689479,0l-.287565986980553-.295638614751624c-2.561720988069283-2.628477120651041-2.561720988069283-6.890773980248923,0-9.519251100892689Z"/>
            <path class="cls-1" d="m413.383460263868074,183.067309347726223l.287565986980553-.29511812423425c2.561720988069283-2.628997611167506,6.714511021969884-2.628997611167506,9.275724903689479,0l38.967399987852332,39.990327551187875c2.561720988069283,2.628477120643765,2.561720988069283,6.890773980241647,0,9.519251100892689l-.288073158033512.295638614751624c-2.561213817014504,2.628477120650132-6.713930397952936,2.628477120650132-9.275651386024037,0l-38.966966334464814-39.990327551188784c-2.561720988069283-2.628997611166596-2.561720988069283-6.890773980240738,0-9.519771591409153Z"/>
            <path class="cls-1" d="m437.445176525398892,172.665826817231391h.407332249669707c3.622141765421475,0,6.558662161567554,3.013640104660226,6.558662161567554,6.731503881455865v56.554938316453445c0,3.717343286260984-2.936520396146079,6.73098339092121-6.558662161567554,6.73098339092121h-.407332249669707c-3.622215659630456,0-6.559243226827675-3.013640104660226-6.559243226827675-6.73098339092121v-56.554938316453445c0-3.717863776795639,2.937027567197219-6.731503881455865,6.559243226827675-6.731503881455865Z"/>
          </g>
          <path class="cls-5" d="m428.478392310576055,207.670375687497653c0,5.195536360057304,4.103520988807759,9.40734563931619,9.166176327566063,9.40734563931619,5.062507560833183,0,9.166535720696629-4.211809279258887,9.166535720696629-9.40734563931619,0-5.195536360058213-4.104028159863446-9.406825148804273-9.166535720696629-9.406825148804273-5.062655338758304,0-9.166176327566063,4.21128878874606-9.166176327566063,9.406825148804273Z"/>
        </g>
      </g>
    </g>
  </g>
</svg>